# This file uses meters as units for non-parametric coordinates.

mtllib Turret window.mtl
g default
v 242.705269 205.850591 -162.532381
v 176.335682 205.850591 -228.901934
v 92.705143 205.850591 -271.513827
v 0.000000 205.850591 -286.196871
v -92.705143 205.850591 -271.513827
v -176.335648 205.850591 -228.901888
v -242.705177 205.850591 -162.532358
v 239.717171 252.780889 -160.361391
v 174.164703 252.780889 -225.913836
v 91.563801 252.780889 -268.001131
v 0.000000 252.780889 -282.503359
v -91.563801 252.780889 -268.001131
v -174.164680 252.780889 -225.913790
v -239.717079 252.780889 -160.361391
v 230.826416 298.555654 -153.901888
v 167.705200 298.555654 -217.023104
v 88.167835 298.555654 -257.549379
v 0.000000 298.555654 -271.513827
v -88.167835 298.555654 -257.549379
v -167.705177 298.555654 -217.023104
v -230.826370 298.555654 -153.901888
v 216.251999 342.047734 -143.312945
v 157.116245 342.047734 -202.448641
v 82.600891 342.047734 -240.416109
v 0.000000 342.047734 -253.498812
v -82.600891 342.047734 -240.416109
v -157.116211 342.047734 -202.448618
v -216.251907 342.047734 -143.312945
v 245.097153 159.711926 -160.324289
v 178.299454 159.711926 -227.004915
v 93.737566 159.711926 -270.091280
v 0.000001 159.711926 -284.937838
v -93.737566 159.711926 -270.091280
v -178.299442 159.711926 -227.004824
v -245.097061 159.711926 -160.324221
v 196.259491 375.911694 -139.887545
v 139.349762 375.911694 -185.015375
v 77.191807 375.911694 -225.252276
v 0.000000 375.911694 -238.334978
v -77.191807 375.911694 -225.252276
v -139.349716 375.911694 -185.015352
v -196.259399 375.911694 -139.887545
vt 0.050000 0.500000
vt 0.100000 0.500000
vt 0.150000 0.500000
vt 0.200000 0.500000
vt 0.250000 0.500000
vt 0.300000 0.500000
vt 0.350000 0.500000
vt 0.050000 0.550000
vt 0.100000 0.550000
vt 0.150000 0.550000
vt 0.200000 0.550000
vt 0.250000 0.550000
vt 0.300000 0.550000
vt 0.350000 0.550000
vt 0.050000 0.600000
vt 0.100000 0.600000
vt 0.150000 0.600000
vt 0.200000 0.600000
vt 0.250000 0.600000
vt 0.300000 0.600000
vt 0.350000 0.600000
vt 0.050000 0.650000
vt 0.100000 0.650000
vt 0.150000 0.650000
vt 0.200000 0.650000
vt 0.250000 0.650000
vt 0.300000 0.650000
vt 0.350000 0.650000
vt 0.000000 0.000000
vt 1.000000 0.000000
vt 1.000000 1.000000
vt 0.000000 1.000000
vt 0.000000 0.000000
vt 1.000000 0.000000
vt 1.000000 1.000000
vt 0.000000 1.000000
vt 0.000000 0.000000
vt 1.000000 0.000000
vt 1.000000 1.000000
vt 0.000000 1.000000
vt 0.000000 0.000000
vt 1.000000 0.000000
vt 1.000000 1.000000
vt 0.000000 1.000000
vt 0.000000 0.000000
vt 1.000000 0.000000
vt 1.000000 1.000000
vt 0.000000 1.000000
vt 0.000000 0.000000
vt 1.000000 0.000000
vt 1.000000 1.000000
vt 0.000000 1.000000
vt 0.000000 0.000000
vt 1.000000 0.000000
vt 1.000000 1.000000
vt 0.000000 1.000000
vt 0.000000 0.000000
vt 1.000000 0.000000
vt 1.000000 1.000000
vt 0.000000 1.000000
vt 0.000000 0.000000
vt 1.000000 0.000000
vt 1.000000 1.000000
vt 0.000000 1.000000
vt 0.000000 0.000000
vt 1.000000 0.000000
vt 1.000000 1.000000
vt 0.000000 1.000000
vt 0.000000 0.000000
vt 1.000000 0.000000
vt 1.000000 1.000000
vt 0.000000 1.000000
vt 0.000000 0.000000
vt 1.000000 0.000000
vt 1.000000 1.000000
vt 0.000000 1.000000
vn -0.706411 -0.038956 0.706729
vn -0.698848 -0.152394 0.698848
vn -0.580751 -0.154249 0.799335
vn -0.584884 -0.035230 0.810351
vn -0.305319 -0.154249 0.939674
vn -0.307434 -0.028080 0.951155
vn 0.000000 -0.154249 0.988032
vn 0.000000 -0.025703 0.999670
vn 0.305319 -0.154249 0.939674
vn 0.307434 -0.028080 0.951155
vn 0.580751 -0.154249 0.799335
vn 0.584885 -0.035230 0.810351
vn 0.698848 -0.152394 0.698848
vn 0.706411 -0.038955 0.706729
vn -0.674229 -0.301379 0.674230
vn -0.559818 -0.304789 0.770524
vn -0.294314 -0.304789 0.905805
vn 0.000000 -0.304789 0.952420
vn 0.294314 -0.304789 0.905805
vn 0.559818 -0.304789 0.770524
vn 0.674230 -0.301379 0.674230
vn -0.654455 -0.378651 0.654456
vn -0.543043 -0.382683 0.747434
vn -0.285495 -0.382683 0.878662
vn 0.000000 -0.382683 0.923880
vn 0.285495 -0.382683 0.878662
vn 0.543043 -0.382684 0.747434
vn 0.654455 -0.378651 0.654455
vn -0.592110 0.007462 0.805822
vn -0.706794 -0.001892 0.707417
vn -0.311848 0.022308 0.949870
vn -0.000000 0.027278 0.999628
vn 0.311848 0.022308 0.949870
vn 0.592111 0.007462 0.805822
vn 0.706795 -0.001891 0.707416
vn -0.572664 -0.515564 0.637377
vn -0.572665 -0.515564 0.637377
vn -0.572664 -0.515564 0.637377
vn -0.572664 -0.515564 0.637377
vn -0.428176 -0.506669 0.748299
vn -0.428176 -0.506669 0.748299
vn -0.428176 -0.506669 0.748299
vn -0.428176 -0.506669 0.748299
vn -0.147095 -0.414001 0.898313
vn -0.147095 -0.414001 0.898313
vn -0.147095 -0.414001 0.898313
vn -0.147095 -0.414001 0.898313
vn 0.147095 -0.414000 0.898313
vn 0.147095 -0.414000 0.898313
vn 0.147095 -0.414000 0.898313
vn 0.147095 -0.414001 0.898313
vn 0.428176 -0.506669 0.748299
vn 0.428176 -0.506669 0.748299
vn 0.428176 -0.506669 0.748299
vn 0.428176 -0.506669 0.748299
vn 0.572665 -0.515564 0.637376
vn 0.572665 -0.515564 0.637376
vn 0.572665 -0.515564 0.637376
vn 0.572665 -0.515564 0.637376
s 1
g pSphere3
usemtl lambert2SG
f 1/1/1 8/8/2 9/9/3 2/2/4
f 2/2/4 9/9/3 10/10/5 3/3/6
f 3/3/6 10/10/5 11/11/7 4/4/8
f 4/4/8 11/11/7 12/12/9 5/5/10
f 5/5/10 12/12/9 13/13/11 6/6/12
f 6/6/12 13/13/11 14/14/13 7/7/14
f 8/8/2 15/15/15 16/16/16 9/9/3
f 9/9/3 16/16/16 17/17/17 10/10/5
f 10/10/5 17/17/17 18/18/18 11/11/7
f 11/11/7 18/18/18 19/19/19 12/12/9
f 12/12/9 19/19/19 20/20/20 13/13/11
f 13/13/11 20/20/20 21/21/21 14/14/13
f 15/15/15 22/22/22 23/23/23 16/16/16
f 16/16/16 23/23/23 24/24/24 17/17/17
f 17/17/17 24/24/24 25/25/25 18/18/18
f 18/18/18 25/25/25 26/26/26 19/19/19
f 19/19/19 26/26/26 27/27/27 20/20/20
f 20/20/20 27/27/27 28/28/28 21/21/21
f 1/29/1 2/30/4 30/31/29 29/32/30
f 2/33/4 3/34/6 31/35/31 30/36/29
f 3/37/6 4/38/8 32/39/32 31/40/31
f 4/41/8 5/42/10 33/43/33 32/44/32
f 5/45/10 6/46/12 34/47/34 33/48/33
f 6/49/12 7/50/14 35/51/35 34/52/34
s off
f 23/53/36 22/54/37 36/55/38 37/56/39
f 24/57/40 23/58/41 37/59/42 38/60/43
f 25/61/44 24/62/45 38/63/46 39/64/47
f 26/65/48 25/66/49 39/67/50 40/68/51
f 27/69/52 26/70/53 40/71/54 41/72/55
f 28/73/56 27/74/57 41/75/58 42/76/59
