# This file uses meters as units for non-parametric coordinates.

mtllib Turret window v2.mtl
g default
v 242.705269 205.850591 -162.532381
v -242.705177 205.850591 -162.532358
v 239.717171 252.780889 -160.361391
v -239.717079 252.780889 -160.361391
v 230.826416 298.555654 -153.901888
v -230.826370 298.555654 -153.901888
v 216.251999 342.047734 -143.312945
v -216.251907 342.047734 -143.312945
v 245.097153 159.711926 -160.324289
v 178.299454 159.711926 -227.004915
v 93.737566 159.711926 -270.091280
v 0.000001 159.711926 -284.937838
v -93.737566 159.711926 -270.091280
v -178.299442 159.711926 -227.004824
v -245.097061 159.711926 -160.324221
v 196.259491 375.911694 -139.887545
v 139.349762 375.911694 -185.015375
v 77.191807 375.911694 -225.252276
v 0.000000 375.911694 -238.334978
v -77.191807 375.911694 -225.252276
v -139.349716 375.911694 -185.015352
v -196.259399 375.911694 -139.887545
vt 0.050000 0.500000
vt 0.050000 0.550000
vt 0.350000 0.550000
vt 0.050000 0.600000
vt 0.350000 0.600000
vt 0.350000 0.650000
vt 1.000000 1.000000
vt 0.000000 1.000000
vt 1.000000 1.000000
vt 1.000000 1.000000
vt 1.000000 1.000000
vt 1.000000 1.000000
vt 1.000000 0.000000
vt 1.000000 1.000000
vt 1.000000 0.000000
vt 1.000000 1.000000
vt 1.000000 1.000000
vt 1.000000 1.000000
vt 1.000000 1.000000
vt 1.000000 1.000000
vt 1.000000 1.000000
vt 0.000000 1.000000
vn 0.000000 -0.248078 0.968740
vn 0.000000 -0.248078 0.968740
vn 0.000000 -0.248078 0.968740
vn 0.000000 -0.248078 0.968740
vn 0.000000 -0.248078 0.968740
vn 0.000000 -0.248078 0.968740
vn 0.000000 -0.248078 0.968740
vn 0.000000 -0.248078 0.968740
vn 0.000000 -0.248078 0.968740
vn 0.000000 -0.248078 0.968740
vn 0.000000 -0.248078 0.968740
vn 0.000000 -0.248078 0.968740
vn 0.000000 -0.248078 0.968740
vn 0.000000 -0.248078 0.968740
vn 0.000000 -0.248078 0.968740
vn 0.000000 -0.248078 0.968740
vn 0.000000 -0.248078 0.968740
vn 0.000000 -0.248078 0.968740
vn 0.000000 -0.248078 0.968740
vn 0.000000 -0.248078 0.968740
vn 0.000000 -0.248078 0.968740
vn 0.000000 -0.248078 0.968740
s off
g pSphere3
usemtl lambert2SG
f 21/21/1 22/22/2 8/6/3 6/5/4 4/3/5 2/13/6 15/14/7 14/12/8 13/11/9 12/10/10 11/9/11 10/7/12 9/8/13 1/1/14 3/2/15 5/4/16 7/15/17 16/16/18 17/17/19 18/18/20 19/19/21 20/20/22
